<svg xmlns="http://www.w3.org/2000/svg" xmlns:xlink="http://www.w3.org/1999/xlink" width="500" zoomAndPan="magnify" viewBox="0 0 375 374.999991" height="500" preserveAspectRatio="xMidYMid meet" version="1.0"><defs><g/><clipPath id="da75026cd3"><path d="M 172 125.878906 L 242.847656 125.878906 L 242.847656 208.378906 L 172 208.378906 Z M 172 125.878906 " clip-rule="nonzero"/></clipPath><clipPath id="6e0cd3ab2e"><path d="M 131.847656 131 L 214 131 L 214 203 L 131.847656 203 Z M 131.847656 131 " clip-rule="nonzero"/></clipPath></defs><g clip-path="url(#da75026cd3)"><path fill="#fbc926" d="M 224.03125 125.890625 L 191.539062 125.890625 C 181.144531 125.890625 172.722656 134.339844 172.722656 144.757812 L 172.722656 189.5 C 172.722656 199.921875 181.144531 208.367188 191.535156 208.367188 L 224.027344 208.367188 C 234.421875 208.367188 242.84375 199.921875 242.84375 189.5 L 242.84375 144.757812 C 242.847656 134.339844 234.425781 125.890625 224.03125 125.890625 Z M 224.03125 125.890625 " fill-opacity="1" fill-rule="nonzero"/></g><g clip-path="url(#6e0cd3ab2e)"><path fill="#000000" d="M 202.082031 138.804688 C 202.082031 142.875 198.796875 146.167969 194.742188 146.167969 C 190.683594 146.167969 187.398438 142.875 187.398438 138.804688 C 187.398438 134.738281 190.6875 131.445312 194.742188 131.445312 C 198.796875 131.445312 202.082031 134.738281 202.082031 138.804688 Z M 150.699219 131.445312 C 146.640625 131.445312 143.355469 134.738281 143.355469 138.804688 C 143.355469 142.875 146.640625 146.167969 150.699219 146.167969 C 154.753906 146.167969 158.039062 142.875 158.039062 138.804688 C 158.039062 134.738281 154.753906 131.445312 150.699219 131.445312 Z M 213.589844 163.5 C 213.589844 160.996094 211.566406 158.960938 209.066406 158.960938 C 206.570312 158.960938 204.539062 160.992188 204.539062 163.5 C 204.539062 164.695312 205 165.78125 205.753906 166.589844 C 204.195312 183.492188 189.972656 196.769531 172.71875 196.769531 C 155.460938 196.769531 141.238281 183.492188 139.679688 166.589844 C 140.433594 165.78125 140.894531 164.695312 140.894531 163.5 C 140.894531 160.996094 138.871094 158.960938 136.367188 158.960938 C 133.871094 158.964844 131.847656 160.996094 131.847656 163.5 C 131.847656 164.988281 132.570312 166.3125 133.675781 167.140625 C 135.515625 187.121094 152.324219 202.816406 172.722656 202.816406 C 193.117188 202.816406 209.925781 187.121094 211.765625 167.140625 C 212.875 166.3125 213.589844 164.992188 213.589844 163.5 Z M 213.589844 163.5 " fill-opacity="1" fill-rule="nonzero"/></g><g fill="#100f0d" fill-opacity="1"><g transform="translate(98.735643, 253.484323)"><g><path d="M 1.234375 -27.90625 C 1.234375 -28.757812 1.546875 -29.492188 2.171875 -30.109375 C 2.796875 -30.734375 3.535156 -31.046875 4.390625 -31.046875 L 24.359375 -31.046875 C 25.210938 -31.046875 25.945312 -30.734375 26.5625 -30.109375 C 27.1875 -29.492188 27.5 -28.757812 27.5 -27.90625 C 27.5 -27.039062 27.1875 -26.296875 26.5625 -25.671875 C 25.945312 -25.054688 25.210938 -24.75 24.359375 -24.75 L 17.78125 -24.75 L 17.78125 -3.15625 C 17.78125 -2.207031 17.445312 -1.398438 16.78125 -0.734375 C 16.125 -0.0664062 15.320312 0.265625 14.375 0.265625 C 13.425781 0.265625 12.617188 -0.0664062 11.953125 -0.734375 C 11.285156 -1.398438 10.953125 -2.207031 10.953125 -3.15625 L 10.953125 -24.75 L 4.390625 -24.75 C 3.535156 -24.75 2.796875 -25.054688 2.171875 -25.671875 C 1.546875 -26.296875 1.234375 -27.039062 1.234375 -27.90625 Z M 1.234375 -27.90625 "/></g></g></g><g fill="#100f0d" fill-opacity="1"><g transform="translate(125.341015, 253.484323)"><g><path d="M 18.890625 -31.578125 C 21.285156 -31.578125 23.488281 -31.15625 25.5 -30.3125 C 27.507812 -29.476562 29.25 -28.34375 30.71875 -26.90625 C 32.1875 -25.46875 33.328125 -23.78125 34.140625 -21.84375 C 34.953125 -19.90625 35.359375 -17.828125 35.359375 -15.609375 L 35.359375 -15.53125 C 35.359375 -13.3125 34.941406 -11.234375 34.109375 -9.296875 C 33.285156 -7.359375 32.140625 -5.65625 30.671875 -4.1875 C 29.210938 -2.726562 27.46875 -1.578125 25.4375 -0.734375 C 23.414062 0.109375 21.207031 0.53125 18.8125 0.53125 C 16.414062 0.53125 14.210938 0.109375 12.203125 -0.734375 C 10.191406 -1.578125 8.453125 -2.710938 6.984375 -4.140625 C 5.523438 -5.578125 4.382812 -7.265625 3.5625 -9.203125 C 2.75 -11.140625 2.34375 -13.21875 2.34375 -15.4375 L 2.34375 -15.53125 C 2.34375 -17.75 2.753906 -19.820312 3.578125 -21.75 C 4.410156 -23.6875 5.5625 -25.390625 7.03125 -26.859375 C 8.5 -28.328125 10.242188 -29.476562 12.265625 -30.3125 C 14.285156 -31.15625 16.492188 -31.578125 18.890625 -31.578125 Z M 18.890625 -5.765625 C 20.285156 -5.765625 21.550781 -6.015625 22.6875 -6.515625 C 23.820312 -7.023438 24.796875 -7.722656 25.609375 -8.609375 C 26.429688 -9.492188 27.070312 -10.519531 27.53125 -11.6875 C 27.988281 -12.851562 28.21875 -14.101562 28.21875 -15.4375 L 28.21875 -15.53125 C 28.21875 -16.851562 27.988281 -18.109375 27.53125 -19.296875 C 27.070312 -20.484375 26.421875 -21.519531 25.578125 -22.40625 C 24.734375 -23.289062 23.738281 -23.988281 22.59375 -24.5 C 21.457031 -25.019531 20.195312 -25.28125 18.8125 -25.28125 C 17.445312 -25.28125 16.1875 -25.03125 15.03125 -24.53125 C 13.882812 -24.03125 12.90625 -23.332031 12.09375 -22.4375 C 11.28125 -21.550781 10.644531 -20.523438 10.1875 -19.359375 C 9.726562 -18.191406 9.5 -16.941406 9.5 -15.609375 L 9.5 -15.53125 C 9.5 -14.195312 9.726562 -12.9375 10.1875 -11.75 C 10.644531 -10.570312 11.289062 -9.535156 12.125 -8.640625 C 12.96875 -7.753906 13.96875 -7.050781 15.125 -6.53125 C 16.28125 -6.019531 17.535156 -5.765625 18.890625 -5.765625 Z M 18.890625 -5.765625 "/></g></g></g><g fill="#100f0d" fill-opacity="1"><g transform="translate(160.903813, 253.484323)"><g><path d="M 1.234375 -27.90625 C 1.234375 -28.757812 1.546875 -29.492188 2.171875 -30.109375 C 2.796875 -30.734375 3.535156 -31.046875 4.390625 -31.046875 L 24.359375 -31.046875 C 25.210938 -31.046875 25.945312 -30.734375 26.5625 -30.109375 C 27.1875 -29.492188 27.5 -28.757812 27.5 -27.90625 C 27.5 -27.039062 27.1875 -26.296875 26.5625 -25.671875 C 25.945312 -25.054688 25.210938 -24.75 24.359375 -24.75 L 17.78125 -24.75 L 17.78125 -3.15625 C 17.78125 -2.207031 17.445312 -1.398438 16.78125 -0.734375 C 16.125 -0.0664062 15.320312 0.265625 14.375 0.265625 C 13.425781 0.265625 12.617188 -0.0664062 11.953125 -0.734375 C 11.285156 -1.398438 10.953125 -2.207031 10.953125 -3.15625 L 10.953125 -24.75 L 4.390625 -24.75 C 3.535156 -24.75 2.796875 -25.054688 2.171875 -25.671875 C 1.546875 -26.296875 1.234375 -27.039062 1.234375 -27.90625 Z M 1.234375 -27.90625 "/></g></g></g><g fill="#100f0d" fill-opacity="1"><g transform="translate(187.509185, 253.484323)"><g><path d="M 2 -4.390625 L 12.8125 -28.828125 C 13.195312 -29.691406 13.722656 -30.359375 14.390625 -30.828125 C 15.054688 -31.304688 15.863281 -31.546875 16.8125 -31.546875 L 17.21875 -31.546875 C 18.15625 -31.546875 18.945312 -31.304688 19.59375 -30.828125 C 20.25 -30.359375 20.769531 -29.691406 21.15625 -28.828125 L 31.984375 -4.390625 C 32.222656 -3.742188 32.34375 -3.285156 32.34375 -3.015625 C 32.34375 -2.097656 32.03125 -1.320312 31.40625 -0.6875 C 30.78125 -0.0507812 30.007812 0.265625 29.09375 0.265625 C 28.300781 0.265625 27.640625 0.0507812 27.109375 -0.375 C 26.578125 -0.800781 26.144531 -1.367188 25.8125 -2.078125 L 23.734375 -6.96875 L 10.0625 -6.96875 L 7.890625 -1.859375 C 7.597656 -1.179688 7.175781 -0.65625 6.625 -0.28125 C 6.082031 0.0820312 5.457031 0.265625 4.75 0.265625 C 3.863281 0.265625 3.113281 -0.0390625 2.5 -0.65625 C 1.894531 -1.28125 1.59375 -2.035156 1.59375 -2.921875 C 1.59375 -3.160156 1.628906 -3.40625 1.703125 -3.65625 C 1.773438 -3.90625 1.875 -4.148438 2 -4.390625 Z M 12.59375 -13 L 21.203125 -13 L 16.90625 -23.25 Z M 12.59375 -13 "/></g></g></g><g fill="#100f0d" fill-opacity="1"><g transform="translate(219.347104, 253.484323)"><g><path d="M 3.71875 -27.90625 C 3.71875 -28.851562 4.050781 -29.65625 4.71875 -30.3125 C 5.382812 -30.976562 6.191406 -31.3125 7.140625 -31.3125 C 8.085938 -31.3125 8.894531 -30.976562 9.5625 -30.3125 C 10.226562 -29.65625 10.5625 -28.851562 10.5625 -27.90625 L 10.5625 -6.203125 L 23.203125 -6.203125 C 24.054688 -6.203125 24.785156 -5.898438 25.390625 -5.296875 C 26.003906 -4.691406 26.3125 -3.960938 26.3125 -3.109375 C 26.3125 -2.242188 26.003906 -1.507812 25.390625 -0.90625 C 24.785156 -0.300781 24.054688 0 23.203125 0 L 7.140625 0 C 6.191406 0 5.382812 -0.332031 4.71875 -1 C 4.050781 -1.664062 3.71875 -2.472656 3.71875 -3.421875 Z M 3.71875 -27.90625 "/></g></g></g><g fill="#100f0d" fill-opacity="1"><g transform="translate(244.666503, 253.484323)"><g><path d="M 3.71875 -27.90625 C 3.71875 -28.851562 4.050781 -29.65625 4.71875 -30.3125 C 5.382812 -30.976562 6.191406 -31.3125 7.140625 -31.3125 C 8.085938 -31.3125 8.894531 -30.976562 9.5625 -30.3125 C 10.226562 -29.65625 10.5625 -28.851562 10.5625 -27.90625 L 10.5625 -17.484375 L 23.15625 -29.984375 C 23.570312 -30.398438 24.007812 -30.722656 24.46875 -30.953125 C 24.925781 -31.191406 25.445312 -31.3125 26.03125 -31.3125 C 26.976562 -31.3125 27.738281 -31 28.3125 -30.375 C 28.894531 -29.757812 29.1875 -29.023438 29.1875 -28.171875 C 29.1875 -27.640625 29.070312 -27.164062 28.84375 -26.75 C 28.625 -26.332031 28.328125 -25.945312 27.953125 -25.59375 L 19.203125 -17.4375 L 28.75 -5.453125 C 29.007812 -5.128906 29.226562 -4.773438 29.40625 -4.390625 C 29.582031 -4.003906 29.671875 -3.5625 29.671875 -3.0625 C 29.671875 -2.113281 29.34375 -1.320312 28.6875 -0.6875 C 28.039062 -0.0507812 27.21875 0.265625 26.21875 0.265625 C 25.539062 0.265625 24.984375 0.117188 24.546875 -0.171875 C 24.117188 -0.472656 23.710938 -0.875 23.328125 -1.375 L 14.46875 -13 L 10.5625 -9.359375 L 10.5625 -3.15625 C 10.5625 -2.207031 10.226562 -1.398438 9.5625 -0.734375 C 8.894531 -0.0664062 8.085938 0.265625 7.140625 0.265625 C 6.191406 0.265625 5.382812 -0.0664062 4.71875 -0.734375 C 4.050781 -1.398438 3.71875 -2.207031 3.71875 -3.15625 Z M 3.71875 -27.90625 "/></g></g></g><g fill="#100f0d" fill-opacity="1"><g transform="translate(129.129392, 268.373978)"><g><path d="M 0.84375 0 L 0.84375 -7.0625 L 4 -7.0625 C 4.71875 -7.0625 5.285156 -6.890625 5.703125 -6.546875 C 6.128906 -6.203125 6.34375 -5.738281 6.34375 -5.15625 C 6.34375 -4.832031 6.269531 -4.535156 6.125 -4.265625 C 5.976562 -3.992188 5.769531 -3.78125 5.5 -3.625 C 5.832031 -3.476562 6.09375 -3.257812 6.28125 -2.96875 C 6.46875 -2.6875 6.5625 -2.351562 6.5625 -1.96875 C 6.5625 -1.570312 6.457031 -1.226562 6.25 -0.9375 C 6.050781 -0.644531 5.769531 -0.414062 5.40625 -0.25 C 5.050781 -0.0820312 4.632812 0 4.15625 0 Z M 2.421875 -1.265625 L 3.921875 -1.265625 C 4.234375 -1.265625 4.476562 -1.335938 4.65625 -1.484375 C 4.832031 -1.640625 4.921875 -1.847656 4.921875 -2.109375 C 4.921875 -2.378906 4.832031 -2.585938 4.65625 -2.734375 C 4.476562 -2.890625 4.234375 -2.96875 3.921875 -2.96875 L 2.421875 -2.96875 Z M 2.421875 -4.1875 L 3.765625 -4.1875 C 4.066406 -4.1875 4.300781 -4.253906 4.46875 -4.390625 C 4.632812 -4.535156 4.71875 -4.734375 4.71875 -4.984375 C 4.71875 -5.242188 4.632812 -5.441406 4.46875 -5.578125 C 4.300781 -5.710938 4.066406 -5.78125 3.765625 -5.78125 L 2.421875 -5.78125 Z M 2.421875 -4.1875 "/></g></g></g><g fill="#100f0d" fill-opacity="1"><g transform="translate(140.396947, 268.373978)"><g><path d="M 0.84375 0 L 0.84375 -7.0625 L 5.484375 -7.0625 L 5.484375 -5.703125 L 2.4375 -5.703125 L 2.4375 -4.25 L 5.203125 -4.25 L 5.203125 -2.90625 L 2.4375 -2.90625 L 2.4375 -1.359375 L 5.59375 -1.359375 L 5.59375 0 Z M 0.84375 0 "/></g></g></g><g fill="#100f0d" fill-opacity="1"><g transform="translate(150.828991, 268.373978)"><g><path d="M 2.6875 0 L 2.6875 -2.46875 L 0.09375 -7.0625 L 1.921875 -7.0625 L 2.796875 -5.421875 L 3.5 -4.140625 L 4.1875 -5.421875 L 5.0625 -7.0625 L 6.890625 -7.0625 L 4.296875 -2.484375 L 4.296875 0 Z M 2.6875 0 "/></g></g></g><g fill="#100f0d" fill-opacity="1"><g transform="translate(162.126746, 268.373978)"><g><path d="M 4.1875 0.140625 C 3.457031 0.140625 2.804688 -0.015625 2.234375 -0.328125 C 1.671875 -0.640625 1.226562 -1.070312 0.90625 -1.625 C 0.59375 -2.175781 0.4375 -2.8125 0.4375 -3.53125 C 0.4375 -4.25 0.59375 -4.882812 0.90625 -5.4375 C 1.226562 -5.988281 1.671875 -6.421875 2.234375 -6.734375 C 2.804688 -7.046875 3.457031 -7.203125 4.1875 -7.203125 C 4.925781 -7.203125 5.578125 -7.046875 6.140625 -6.734375 C 6.710938 -6.421875 7.160156 -5.988281 7.484375 -5.4375 C 7.804688 -4.882812 7.96875 -4.25 7.96875 -3.53125 C 7.96875 -2.8125 7.804688 -2.175781 7.484375 -1.625 C 7.160156 -1.070312 6.710938 -0.640625 6.140625 -0.328125 C 5.578125 -0.015625 4.925781 0.140625 4.1875 0.140625 Z M 2.0625 -3.53125 C 2.0625 -3.101562 2.148438 -2.726562 2.328125 -2.40625 C 2.515625 -2.082031 2.765625 -1.828125 3.078125 -1.640625 C 3.398438 -1.460938 3.769531 -1.375 4.1875 -1.375 C 4.613281 -1.375 4.984375 -1.460938 5.296875 -1.640625 C 5.617188 -1.828125 5.867188 -2.082031 6.046875 -2.40625 C 6.222656 -2.726562 6.3125 -3.101562 6.3125 -3.53125 C 6.3125 -3.945312 6.222656 -4.316406 6.046875 -4.640625 C 5.867188 -4.960938 5.617188 -5.210938 5.296875 -5.390625 C 4.984375 -5.578125 4.613281 -5.671875 4.1875 -5.671875 C 3.769531 -5.671875 3.398438 -5.578125 3.078125 -5.390625 C 2.765625 -5.210938 2.515625 -4.960938 2.328125 -4.640625 C 2.148438 -4.316406 2.0625 -3.945312 2.0625 -3.53125 Z M 2.0625 -3.53125 "/></g></g></g><g fill="#100f0d" fill-opacity="1"><g transform="translate(174.843855, 268.373978)"><g><path d="M 0.84375 0 L 0.84375 -7.0625 L 2.203125 -7.0625 L 5.328125 -2.765625 L 5.328125 -7.0625 L 6.90625 -7.0625 L 6.90625 0 L 5.546875 0 L 2.4375 -4.328125 L 2.4375 0 Z M 0.84375 0 "/></g></g></g><g fill="#100f0d" fill-opacity="1"><g transform="translate(186.926778, 268.373978)"><g><path d="M 0.84375 0 L 0.84375 -7.0625 L 3.640625 -7.0625 C 4.378906 -7.0625 5.03125 -6.910156 5.59375 -6.609375 C 6.15625 -6.316406 6.585938 -5.90625 6.890625 -5.375 C 7.203125 -4.84375 7.359375 -4.226562 7.359375 -3.53125 C 7.359375 -2.820312 7.203125 -2.203125 6.890625 -1.671875 C 6.585938 -1.148438 6.15625 -0.738281 5.59375 -0.4375 C 5.03125 -0.144531 4.378906 0 3.640625 0 Z M 2.453125 -1.46875 L 3.609375 -1.46875 C 4.023438 -1.46875 4.390625 -1.550781 4.703125 -1.71875 C 5.023438 -1.894531 5.273438 -2.132812 5.453125 -2.4375 C 5.628906 -2.75 5.71875 -3.113281 5.71875 -3.53125 C 5.71875 -3.945312 5.628906 -4.304688 5.453125 -4.609375 C 5.273438 -4.910156 5.023438 -5.144531 4.703125 -5.3125 C 4.378906 -5.488281 4.007812 -5.578125 3.59375 -5.578125 L 2.453125 -5.578125 Z M 2.453125 -1.46875 "/></g></g></g><g fill="#100f0d" fill-opacity="1"><g transform="translate(199.029831, 268.373978)"><g/></g></g><g fill="#100f0d" fill-opacity="1"><g transform="translate(205.727268, 268.373978)"><g><path d="M 2.546875 0 L 2.546875 -5.546875 L 0.296875 -5.546875 L 0.296875 -7.0625 L 6.375 -7.0625 L 6.375 -5.546875 L 4.140625 -5.546875 L 4.140625 0 Z M 2.546875 0 "/></g></g></g><g fill="#100f0d" fill-opacity="1"><g transform="translate(216.733096, 268.373978)"><g><path d="M 0.09375 0 L 2.890625 -7.0625 L 4.46875 -7.0625 L 7.265625 0 L 5.546875 0 L 5.078125 -1.21875 L 2.28125 -1.21875 L 1.796875 0 Z M 2.6875 -2.484375 L 4.671875 -2.484375 L 3.671875 -5.0625 Z M 2.6875 -2.484375 "/></g></g></g><g fill="#100f0d" fill-opacity="1"><g transform="translate(228.413371, 268.373978)"><g><path d="M 0.84375 0 L 0.84375 -7.0625 L 2.453125 -7.0625 L 2.453125 -1.5 L 5.53125 -1.5 L 5.53125 0 Z M 0.84375 0 "/></g></g></g><g fill="#100f0d" fill-opacity="1"><g transform="translate(238.543428, 268.373978)"><g><path d="M 0.84375 0 L 0.84375 -7.0625 L 2.453125 -7.0625 L 2.453125 -4.34375 L 3.046875 -4.34375 C 3.441406 -4.34375 3.734375 -4.40625 3.921875 -4.53125 C 4.109375 -4.664062 4.265625 -4.894531 4.390625 -5.21875 L 5.046875 -7.0625 L 6.78125 -7.0625 L 5.8125 -4.546875 C 5.71875 -4.316406 5.613281 -4.109375 5.5 -3.921875 C 5.394531 -3.742188 5.269531 -3.585938 5.125 -3.453125 L 7.03125 0 L 5.171875 0 L 3.65625 -2.859375 C 3.59375 -2.859375 3.53125 -2.859375 3.46875 -2.859375 C 3.414062 -2.859375 3.359375 -2.859375 3.296875 -2.859375 L 2.453125 -2.859375 L 2.453125 0 Z M 0.84375 0 "/></g></g></g></svg>